<?xml version="1.0" encoding="utf-8"?>
<!-- Generator: Adobe Illustrator 29.8.3, SVG Export Plug-In . SVG Version: 9.03 Build 0)  -->
<svg version="1.0" id="Layer_1" xmlns="http://www.w3.org/2000/svg" xmlns:xlink="http://www.w3.org/1999/xlink" x="0px" y="0px"
	 width="200px" height="200px" viewBox="0 0 200 200" style="enable-background:new 0 0 200 200;" xml:space="preserve">
<style type="text/css">
	.st0{fill:none;stroke:#FFFFFF;stroke-width:20;stroke-miterlimit:10;}
	.st1{fill:#F6F087;}
	.st2{fill:#FFFFFF;}
</style>
<circle class="st0" cx="100" cy="100" r="50"/>
<rect x="-6.4" y="-5.7" width="212" height="211.6"/>
<path class="st1" d="M99.1,99.8l-20.9,20.9l-14.1,14.1L50,148.9C37.6,136.3,30,119,30,100c0-19.1,7.7-36.5,20.2-49.2l28.3,28.3
	L99.1,99.8z"/>
<path class="st2" d="M100,160c-33.1,0-60-26.9-60-60s26.9-60,60-60s60,26.9,60,60S133.1,160,100,160z M100,60c-22.1,0-40,17.9-40,40
	c0,22.1,17.9,40,40,40c22.1,0,40-17.9,40-40C140,77.9,122.1,60,100,60z"/>
<g>
</g>
<g>
</g>
<g>
</g>
<g>
</g>
<g>
</g>
<g>
</g>
</svg>
